<svg xmlns="http://www.w3.org/2000/svg" viewBox="0 0 42 42"><defs><style>.cls-1{fill:#d1d1d1;}.cls-2{fill:#fff;}</style></defs><title>btn_info</title><g id="campos_del_formulario" data-name="campos del formulario"><path class="cls-1" d="M21,41.5A20.5,20.5,0,1,1,41.5,21,20.53,20.53,0,0,1,21,41.5Zm0-39A18.48,18.48,0,1,0,39.48,21,18.5,18.5,0,0,0,21,2.52Z"/><path class="cls-2" d="M18.58,26A8.9,8.9,0,0,1,19,23.2,7,7,0,0,1,20.47,21l1.92-2a4.4,4.4,0,0,0,1.23-3,3.43,3.43,0,0,0-.8-2.4,3,3,0,0,0-2.35-.87,3.58,3.58,0,0,0-2.4.79,2.71,2.71,0,0,0-.91,2.13h-2.7a4.91,4.91,0,0,1,1.69-3.83,6.31,6.31,0,0,1,4.32-1.46,6,6,0,0,1,4.32,1.48,5.42,5.42,0,0,1,1.54,4.07A7.37,7.37,0,0,1,24,21l-1.6,1.58A4.92,4.92,0,0,0,21.29,26Zm-.11,4.65a1.59,1.59,0,0,1,.4-1.11A1.52,1.52,0,0,1,20.06,29a1.53,1.53,0,0,1,1.2.45,1.56,1.56,0,0,1,.41,1.11,1.5,1.5,0,0,1-.41,1.1,1.53,1.53,0,0,1-1.2.44,1.52,1.52,0,0,1-1.19-.44A1.54,1.54,0,0,1,18.47,30.6Z"/></g></svg>